<?xml version="1.0" encoding="UTF-8" standalone="no"?>
<svg
   xmlns:dc="http://purl.org/dc/elements/1.1/"
   xmlns:cc="http://creativecommons.org/ns#"
   xmlns:rdf="http://www.w3.org/1999/02/22-rdf-syntax-ns#"
   xmlns:svg="http://www.w3.org/2000/svg"
   xmlns="http://www.w3.org/2000/svg"
   xmlns:sodipodi="http://sodipodi.sourceforge.net/DTD/sodipodi-0.dtd"
   xmlns:inkscape="http://www.inkscape.org/namespaces/inkscape"
   width="206pt"
   height="206pt"
   viewBox="0 0 206 206"
   version="1.1"
   id="svg4610"
   sodipodi:docname="main-app.svg"
   inkscape:version="0.92.2 2405546, 2018-03-11">
  <metadata
     id="metadata4616">
    <rdf:RDF>
      <cc:Work
         rdf:about="">
        <dc:format>image/svg+xml</dc:format>
        <dc:type
           rdf:resource="http://purl.org/dc/dcmitype/StillImage" />
      </cc:Work>
    </rdf:RDF>
  </metadata>
  <defs
     id="defs4614" />
  <sodipodi:namedview
     pagecolor="#ffffff"
     bordercolor="#666666"
     borderopacity="1"
     objecttolerance="10"
     gridtolerance="10"
     guidetolerance="10"
     inkscape:pageopacity="0"
     inkscape:pageshadow="2"
     inkscape:window-width="1920"
     inkscape:window-height="1136"
     id="namedview4612"
     showgrid="false"
     inkscape:zoom="3.2985437"
     inkscape:cx="137.33333"
     inkscape:cy="137.33333"
     inkscape:window-x="0"
     inkscape:window-y="27"
     inkscape:window-maximized="1"
     inkscape:current-layer="svg4610" />
  <path
     inkscape:connector-curvature="0"
     id="path4593"
     d="m 23,3 h 160 c 11.04688,0 20,8.95312 20,20 v 160 c 0,11.04688 -8.95312,20 -20,20 H 23 C 11.95312,203 3,194.04688 3,183 V 23 C 3,11.95312 11.95312,3 23,3"
     style="fill:#ffffff;fill-opacity:1;fill-rule:evenodd;stroke:#000000;stroke-width:6;stroke-linecap:butt;stroke-linejoin:round;stroke-miterlimit:10;stroke-opacity:1" />
  <path
     inkscape:connector-curvature="0"
     id="path4595"
     d="M 124,50.5 C 124,61.82032 114.82032,71 103.5,71 92.17968,71 83,61.82032 83,50.5 83,39.17968 92.17968,30 103.5,30 114.82032,30 124,39.17968 124,50.5"
     style="fill:#fd7d2b;fill-opacity:1;fill-rule:evenodd;stroke:#000000;stroke-width:6;stroke-linecap:butt;stroke-linejoin:round;stroke-miterlimit:10;stroke-opacity:1" />
  <path
     inkscape:connector-curvature="0"
     id="path4597"
     d="M 124,150.5 C 124,161.82032 114.82032,171 103.5,171 92.17968,171 83,161.82032 83,150.5 83,139.17968 92.17968,130 103.5,130 c 11.32032,0 20.5,9.17968 20.5,20.5"
     style="fill:#faca45;fill-opacity:1;fill-rule:evenodd;stroke:#000000;stroke-width:6;stroke-linecap:butt;stroke-linejoin:round;stroke-miterlimit:10;stroke-opacity:1" />
  <path
     inkscape:connector-curvature="0"
     id="path4599"
     d="m 63.5,130 c 0,11.32032 -9.17968,20.5 -20.5,20.5 -11.32032,0 -20.5,-9.17968 -20.5,-20.5 0,-11.32032 9.17968,-20.5 20.5,-20.5 11.32032,0 20.5,9.17968 20.5,20.5"
     style="fill:#a1bf7f;fill-opacity:1;fill-rule:evenodd;stroke:#000000;stroke-width:6;stroke-linecap:butt;stroke-linejoin:round;stroke-miterlimit:10;stroke-opacity:1" />
  <path
     inkscape:connector-curvature="0"
     id="path4601"
     d="m 184,130.5 c 0,11.32032 -9.17968,20.5 -20.5,20.5 -11.32032,0 -20.5,-9.17968 -20.5,-20.5 0,-11.32032 9.17968,-20.5 20.5,-20.5 11.32032,0 20.5,9.17968 20.5,20.5"
     style="fill:#57a385;fill-opacity:1;fill-rule:evenodd;stroke:#000000;stroke-width:6;stroke-linecap:butt;stroke-linejoin:round;stroke-miterlimit:10;stroke-opacity:1" />
  <path
     inkscape:connector-curvature="0"
     id="path4603"
     d="m 103.5,71 c 0,19.5 -60.19922,23.5 -60.5,38.5"
     style="fill:none;stroke:#000000;stroke-width:6;stroke-linecap:butt;stroke-linejoin:miter;stroke-miterlimit:10;stroke-opacity:1" />
  <path
     inkscape:connector-curvature="0"
     id="path4605"
     d="m 103.5,71 c 2,22.5 60.19922,19.5 60,39"
     style="fill:none;stroke:#000000;stroke-width:6;stroke-linecap:butt;stroke-linejoin:miter;stroke-miterlimit:10;stroke-opacity:1" />
  <path
     inkscape:connector-curvature="0"
     id="path4607"
     d="m 103.5,71 v 59"
     style="fill:none;stroke:#000000;stroke-width:6;stroke-linecap:butt;stroke-linejoin:miter;stroke-miterlimit:10;stroke-opacity:1" />
</svg>
