<?xml version="1.0" encoding="UTF-8" standalone="no"?>
<svg
   xmlns:dc="http://purl.org/dc/elements/1.1/"
   xmlns:cc="http://creativecommons.org/ns#"
   xmlns:rdf="http://www.w3.org/1999/02/22-rdf-syntax-ns#"
   xmlns:svg="http://www.w3.org/2000/svg"
   xmlns="http://www.w3.org/2000/svg"
   xmlns:sodipodi="http://sodipodi.sourceforge.net/DTD/sodipodi-0.dtd"
   xmlns:inkscape="http://www.inkscape.org/namespaces/inkscape"
   width="299pt"
   height="299pt"
   viewBox="0 0 299 299"
   version="1.1"
   id="svg27"
   sodipodi:docname="graph.svg"
   inkscape:version="0.92.2 2405546, 2018-03-11">
  <metadata
     id="metadata33">
    <rdf:RDF>
      <cc:Work
         rdf:about="">
        <dc:format>image/svg+xml</dc:format>
        <dc:type
           rdf:resource="http://purl.org/dc/dcmitype/StillImage" />
      </cc:Work>
    </rdf:RDF>
  </metadata>
  <defs
     id="defs31" />
  <sodipodi:namedview
     pagecolor="#ffffff"
     bordercolor="#666666"
     borderopacity="1"
     objecttolerance="10"
     gridtolerance="10"
     guidetolerance="10"
     inkscape:pageopacity="0"
     inkscape:pageshadow="2"
     inkscape:window-width="1600"
     inkscape:window-height="836"
     id="namedview29"
     showgrid="false"
     inkscape:zoom="0.59197324"
     inkscape:cx="-389.00587"
     inkscape:cy="104.73447"
     inkscape:window-x="0"
     inkscape:window-y="27"
     inkscape:window-maximized="1"
     inkscape:current-layer="svg27" />
  <path
     inkscape:connector-curvature="0"
     id="path4"
     d="M 197,39.5 C 197,60.21094 180.21094,77 159.5,77 138.78906,77 122,60.21094 122,39.5 122,18.78906 138.78906,2 159.5,2 180.21094,2 197,18.78906 197,39.5"
     style="fill:#fa7d2b;fill-opacity:1;fill-rule:evenodd;stroke:#000000;stroke-width:6.00000015;stroke-linecap:butt;stroke-linejoin:miter;stroke-miterlimit:4;stroke-dasharray:none;stroke-opacity:1" />
  <path
     inkscape:connector-curvature="0"
     id="path6"
     d="M 197,39.5 C 197,60.21094 180.21094,77 159.5,77 138.78906,77 122,60.21094 122,39.5 122,18.78906 138.78906,2 159.5,2 180.21094,2 197,18.78906 197,39.5"
     style="fill:none;stroke:#000000;stroke-width:6.00000015;stroke-linecap:butt;stroke-linejoin:miter;stroke-miterlimit:4;stroke-dasharray:none;stroke-opacity:1" />
  <path
     inkscape:connector-curvature="0"
     id="path8"
     d="M 77,259.5 C 77,280.21094 60.21094,297 39.5,297 18.78906,297 2,280.21094 2,259.5 2,238.78906 18.78906,222 39.5,222 60.21094,222 77,238.78906 77,259.5"
     style="fill:#faca45;fill-opacity:1;fill-rule:evenodd;stroke:#000000;stroke-width:6.00000015;stroke-linecap:butt;stroke-linejoin:miter;stroke-miterlimit:4;stroke-dasharray:none;stroke-opacity:1" />
  <path
     inkscape:connector-curvature="0"
     id="path10"
     d="M 77,259.5 C 77,280.21094 60.21094,297 39.5,297 18.78906,297 2,280.21094 2,259.5 2,238.78906 18.78906,222 39.5,222 60.21094,222 77,238.78906 77,259.5"
     style="fill:none;stroke:#000000;stroke-width:6.00000015;stroke-linecap:butt;stroke-linejoin:miter;stroke-miterlimit:4;stroke-dasharray:none;stroke-opacity:1" />
  <path
     inkscape:connector-curvature="0"
     id="path12"
     d="m 197,139.5 c 0,20.71094 -16.78906,37.5 -37.5,37.5 -20.71094,0 -37.5,-16.78906 -37.5,-37.5 0,-20.71094 16.78906,-37.5 37.5,-37.5 20.71094,0 37.5,16.78906 37.5,37.5"
     style="fill:#57a385;fill-opacity:1;fill-rule:evenodd;stroke:#000000;stroke-width:6.00000015;stroke-linecap:butt;stroke-linejoin:miter;stroke-miterlimit:4;stroke-dasharray:none;stroke-opacity:1" />
  <path
     inkscape:connector-curvature="0"
     id="path14"
     d="m 197,139.5 c 0,20.71094 -16.78906,37.5 -37.5,37.5 -20.71094,0 -37.5,-16.78906 -37.5,-37.5 0,-20.71094 16.78906,-37.5 37.5,-37.5 20.71094,0 37.5,16.78906 37.5,37.5"
     style="fill:none;stroke:#000000;stroke-width:6.00000015;stroke-linecap:butt;stroke-linejoin:miter;stroke-miterlimit:4;stroke-dasharray:none;stroke-opacity:1" />
  <path
     inkscape:connector-curvature="0"
     id="path16"
     d="m 297,259.5 c 0,20.71094 -16.78906,37.5 -37.5,37.5 -20.71094,0 -37.5,-16.78906 -37.5,-37.5 0,-20.71094 16.78906,-37.5 37.5,-37.5 20.71094,0 37.5,16.78906 37.5,37.5"
     style="fill:#a1bf7f;fill-opacity:1;fill-rule:evenodd;stroke:#000000;stroke-width:6.00000015;stroke-linecap:butt;stroke-linejoin:miter;stroke-miterlimit:4;stroke-dasharray:none;stroke-opacity:1" />
  <path
     inkscape:connector-curvature="0"
     id="path18"
     d="m 297,259.5 c 0,20.71094 -16.78906,37.5 -37.5,37.5 -20.71094,0 -37.5,-16.78906 -37.5,-37.5 0,-20.71094 16.78906,-37.5 37.5,-37.5 20.71094,0 37.5,16.78906 37.5,37.5"
     style="fill:none;stroke:#000000;stroke-width:6.00000015;stroke-linecap:butt;stroke-linejoin:miter;stroke-miterlimit:4;stroke-dasharray:none;stroke-opacity:1" />
  <path
     inkscape:connector-curvature="0"
     id="path20"
     d="m 159.5,77 v 25"
     style="fill:none;stroke:#000000;stroke-width:9.00000023;stroke-linecap:butt;stroke-linejoin:miter;stroke-miterlimit:4;stroke-dasharray:none;stroke-opacity:1" />
  <path
     inkscape:connector-curvature="0"
     id="path22"
     d="M 159.5,177 C 142,222 82,182 39.5,222"
     style="fill:none;stroke:#000000;stroke-width:9.00000023;stroke-linecap:butt;stroke-linejoin:miter;stroke-miterlimit:4;stroke-dasharray:none;stroke-opacity:1" />
  <path
     inkscape:connector-curvature="0"
     id="path24"
     d="m 159.5,177 c 22.5,45 62.5,5 100,45"
     style="fill:none;stroke:#000000;stroke-width:9.00000023;stroke-linecap:butt;stroke-linejoin:miter;stroke-miterlimit:4;stroke-dasharray:none;stroke-opacity:1" />
</svg>
